<svg width="640" height="182" viewBox="0 0 640 182" fill="none" xmlns="http://www.w3.org/2000/svg">
<path d="M291.087 0C285.843 5.99306 279.85 7.49133 272.608 7.74104H268.862V178.294H293.584V0H291.087Z" fill="#232222"/>
<path d="M321.442 7.74104C328.684 7.49133 334.677 5.99306 339.921 0H342.418V178.294H317.697V7.74104H321.442Z" fill="#232222"/>
<path fill-rule="evenodd" clip-rule="evenodd" d="M353.393 115.855C353.393 159.305 374.868 181.779 409.328 181.779C443.788 181.779 465.264 159.305 465.264 115.855C465.264 72.1555 443.788 49.9313 409.328 49.9313C374.868 49.9313 353.393 72.4052 353.393 115.855ZM409.328 176.535C389.601 176.535 381.611 156.807 381.611 115.855C381.611 74.9023 389.601 54.9255 409.328 54.9255C429.056 54.9255 437.046 74.9023 437.046 115.855C437.046 156.807 429.056 176.535 409.328 176.535Z" fill="#232222"/>
<path fill-rule="evenodd" clip-rule="evenodd" d="M160.084 115.355C160.084 75.4018 181.809 49.9313 212.523 49.9313C236.995 49.9313 254.724 66.6619 254.724 99.1243H188.051V105.617C188.051 141.076 197.041 169.543 221.263 169.543C233.249 169.543 246.484 161.802 255.224 132.086L259.968 133.335C249.73 171.041 232.001 181.779 211.524 181.779C179.811 181.779 160.084 157.806 160.084 115.355ZM188.301 94.1301H229.503C229.503 66.1625 223.261 54.9255 211.774 54.9255C196.791 54.9255 190.049 69.9081 188.301 94.1301Z" fill="#232222"/>
<path d="M124.606 79.3971C124.606 64.4145 121.359 58.9208 113.868 58.9208C105.877 58.9208 97.3873 64.1648 86.6497 76.1509C86.8994 78.8977 87.1491 82.144 87.1491 85.6399V178.283H62.178V79.3971C62.178 64.4145 59.1815 58.9208 51.6902 58.9208C43.4497 58.9208 34.4601 64.6642 24.7214 75.6515V178.283H0V57.6723H3.74566C10.9873 57.4226 16.9803 55.9243 22.2243 49.9313H24.7214V69.6584C33.711 59.4203 44.6982 49.9313 59.6809 49.9313C72.6659 49.9313 82.1549 55.9243 85.6508 71.1567C96.3884 59.4203 107.376 49.9313 122.109 49.9313C138.59 49.9313 149.577 59.67 149.577 85.6399V154.81C149.577 171.54 151.575 173.288 161.563 175.786V178.283H124.606V79.3971Z" fill="#232222"/>
<path d="M551.948 105.086L593.441 0H582.145L545.801 88.2129L531.777 49.7129H505.446L531.794 122.21L521.09 148.191L485.218 49.7129H458.886L505.618 178.293L523.043 178.289L538.213 139.87L552.177 178.293L569.602 178.289L640 0H628.704L567.649 148.191L551.948 105.086Z" fill="#232222"/>
</svg>
